<svg width="175" height="86" viewBox="0 0 175 86" fill="none" xmlns="http://www.w3.org/2000/svg">
<path d="M96.4792 1.89426C96.9983 1.81195 97.5225 2.00727 97.8612 2.40913C99.9664 4.90728 102.224 7.77075 103.72 13.3531C105.955 21.6942 101.028 30.4439 93.4007 32.4892M96.4792 1.89426L93.0101 31.041M96.4792 1.89426C95.9602 1.97657 95.5221 2.32451 95.3244 2.81143C94.5502 4.71794 93.8187 5.82668 92.5416 6.88776C91.1783 8.02051 89.1578 9.13173 85.6473 10.8921M96.4792 1.89426L86.305 12.2403M93.4007 32.4892C93.3999 32.4894 93.3992 32.4896 93.3984 32.4898L93.0101 31.041M93.4007 32.4892C93.4015 32.489 93.4023 32.4888 93.403 32.4886L93.0101 31.041M93.4007 32.4892C90.7346 33.2122 87.8935 32.835 85.4442 31.4615C82.9975 30.0894 81.1188 27.8245 80.1576 25.1296C79.1966 22.435 79.213 19.4795 80.2208 16.843C81.2275 14.2095 83.1559 12.0763 85.6473 10.8921M93.0101 31.041C90.7355 31.6583 88.2968 31.3414 86.1779 30.1531C84.0589 28.9648 82.4144 26.9919 81.5705 24.6257C80.7266 22.2595 80.7449 19.6728 81.6219 17.3786C82.4989 15.0845 84.1704 13.2505 86.305 12.2403M85.6473 10.8921C85.6424 10.8945 85.6376 10.897 85.6327 10.8994L86.305 12.2403M85.6473 10.8921C85.6527 10.8896 85.658 10.887 85.6634 10.8845L86.305 12.2403" fill="#279978" stroke="#279978" stroke-width="3" stroke-linecap="round" stroke-linejoin="round"/>
<path d="M81.5258 34.859C80.4145 30.7113 82.124 27.4971 86.0747 25.4901C89.0344 23.9858 91.7127 21.0158 92.6387 19.2859" stroke="white" stroke-width="6" stroke-linecap="round" stroke-linejoin="round"/>
<mask id="path-3-outside-1_30_2" maskUnits="userSpaceOnUse" x="3" y="22" width="172" height="65" fill="black">
<rect fill="white" x="3" y="22" width="172" height="65"/>
<path d="M4.59091 25.4546H14.9091L28.7273 59.1818H29.2727L43.0909 25.4546H53.4091V72H45.3182V40.0227H44.8864L32.0227 71.8637H25.9773L13.1136 39.9546H12.6818V72H4.59091V25.4546ZM62.2273 72V37.0909H70.4545V72H62.2273ZM66.3636 32.1364C65.0606 32.1364 63.9394 31.7046 63 30.8409C62.0606 29.9621 61.5909 28.9091 61.5909 27.6818C61.5909 26.4394 62.0606 25.3864 63 24.5227C63.9394 23.644 65.0606 23.2046 66.3636 23.2046C67.6818 23.2046 68.803 23.644 69.7273 24.5227C70.6667 25.3864 71.1364 26.4394 71.1364 27.6818C71.1364 28.9091 70.6667 29.9621 69.7273 30.8409C68.803 31.7046 67.6818 32.1364 66.3636 32.1364ZM87.142 51.5455V72H78.9148V37.0909H86.7784V43.0227H87.1875C87.9905 41.0682 89.2708 39.5152 91.0284 38.3637C92.8011 37.2121 94.9905 36.6364 97.5966 36.6364C100.006 36.6364 102.104 37.1515 103.892 38.1818C105.695 39.2121 107.089 40.7046 108.074 42.6591C109.074 44.6137 109.566 46.9849 109.551 49.7727V72H101.324V51.0455C101.324 48.7121 100.718 46.8864 99.5057 45.5682C98.3087 44.25 96.6496 43.5909 94.5284 43.5909C93.089 43.5909 91.8087 43.9091 90.6875 44.5455C89.5814 45.1667 88.7102 46.0682 88.0739 47.25C87.4527 48.4318 87.142 49.8637 87.142 51.5455ZM135.347 37.0909V43.4546H115.278V37.0909H135.347ZM120.233 28.7273H128.46V61.5C128.46 62.6061 128.627 63.4546 128.96 64.0455C129.309 64.6212 129.763 65.0152 130.324 65.2273C130.884 65.4394 131.506 65.5455 132.188 65.5455C132.703 65.5455 133.172 65.5076 133.597 65.4318C134.036 65.3561 134.369 65.2879 134.597 65.2273L135.983 71.6591C135.544 71.8106 134.915 71.9773 134.097 72.1591C133.294 72.3409 132.309 72.447 131.142 72.4773C129.081 72.5379 127.225 72.2273 125.574 71.5455C123.922 70.8485 122.612 69.7727 121.642 68.3182C120.688 66.8637 120.218 65.0455 120.233 62.8637V28.7273ZM147.341 85.0909C146.22 85.0909 145.182 85 144.227 84.8182C143.288 84.6515 142.538 84.4546 141.977 84.2273L143.886 77.8182C145.083 78.1667 146.152 78.3333 147.091 78.3182C148.03 78.303 148.856 78.0076 149.568 77.4318C150.295 76.8712 150.909 75.9318 151.409 74.6137L152.114 72.7273L139.455 37.0909H148.182L156.227 63.4546H156.591L164.659 37.0909H173.409L159.432 76.2273C158.78 78.0758 157.917 79.6591 156.841 80.9773C155.765 82.3106 154.447 83.3258 152.886 84.0227C151.341 84.7349 149.492 85.0909 147.341 85.0909Z"/>
</mask>
<path d="M4.59091 25.4546H14.9091L28.7273 59.1818H29.2727L43.0909 25.4546H53.4091V72H45.3182V40.0227H44.8864L32.0227 71.8637H25.9773L13.1136 39.9546H12.6818V72H4.59091V25.4546ZM62.2273 72V37.0909H70.4545V72H62.2273ZM66.3636 32.1364C65.0606 32.1364 63.9394 31.7046 63 30.8409C62.0606 29.9621 61.5909 28.9091 61.5909 27.6818C61.5909 26.4394 62.0606 25.3864 63 24.5227C63.9394 23.644 65.0606 23.2046 66.3636 23.2046C67.6818 23.2046 68.803 23.644 69.7273 24.5227C70.6667 25.3864 71.1364 26.4394 71.1364 27.6818C71.1364 28.9091 70.6667 29.9621 69.7273 30.8409C68.803 31.7046 67.6818 32.1364 66.3636 32.1364ZM87.142 51.5455V72H78.9148V37.0909H86.7784V43.0227H87.1875C87.9905 41.0682 89.2708 39.5152 91.0284 38.3637C92.8011 37.2121 94.9905 36.6364 97.5966 36.6364C100.006 36.6364 102.104 37.1515 103.892 38.1818C105.695 39.2121 107.089 40.7046 108.074 42.6591C109.074 44.6137 109.566 46.9849 109.551 49.7727V72H101.324V51.0455C101.324 48.7121 100.718 46.8864 99.5057 45.5682C98.3087 44.25 96.6496 43.5909 94.5284 43.5909C93.089 43.5909 91.8087 43.9091 90.6875 44.5455C89.5814 45.1667 88.7102 46.0682 88.0739 47.25C87.4527 48.4318 87.142 49.8637 87.142 51.5455ZM135.347 37.0909V43.4546H115.278V37.0909H135.347ZM120.233 28.7273H128.46V61.5C128.46 62.6061 128.627 63.4546 128.96 64.0455C129.309 64.6212 129.763 65.0152 130.324 65.2273C130.884 65.4394 131.506 65.5455 132.188 65.5455C132.703 65.5455 133.172 65.5076 133.597 65.4318C134.036 65.3561 134.369 65.2879 134.597 65.2273L135.983 71.6591C135.544 71.8106 134.915 71.9773 134.097 72.1591C133.294 72.3409 132.309 72.447 131.142 72.4773C129.081 72.5379 127.225 72.2273 125.574 71.5455C123.922 70.8485 122.612 69.7727 121.642 68.3182C120.688 66.8637 120.218 65.0455 120.233 62.8637V28.7273ZM147.341 85.0909C146.22 85.0909 145.182 85 144.227 84.8182C143.288 84.6515 142.538 84.4546 141.977 84.2273L143.886 77.8182C145.083 78.1667 146.152 78.3333 147.091 78.3182C148.03 78.303 148.856 78.0076 149.568 77.4318C150.295 76.8712 150.909 75.9318 151.409 74.6137L152.114 72.7273L139.455 37.0909H148.182L156.227 63.4546H156.591L164.659 37.0909H173.409L159.432 76.2273C158.78 78.0758 157.917 79.6591 156.841 80.9773C155.765 82.3106 154.447 83.3258 152.886 84.0227C151.341 84.7349 149.492 85.0909 147.341 85.0909Z" fill="#0D141C"/>
<path d="M4.59091 25.4546V24.4546H3.59091V25.4546H4.59091ZM14.9091 25.4546L15.8344 25.0754L15.5801 24.4546H14.9091V25.4546ZM28.7273 59.1818L27.8019 59.561L28.0563 60.1818H28.7273V59.1818ZM29.2727 59.1818V60.1818H29.9437L30.1981 59.561L29.2727 59.1818ZM43.0909 25.4546V24.4546H42.4199L42.1656 25.0754L43.0909 25.4546ZM53.4091 25.4546H54.4091V24.4546H53.4091V25.4546ZM53.4091 72V73H54.4091V72H53.4091ZM45.3182 72H44.3182V73H45.3182V72ZM45.3182 40.0227H46.3182V39.0227H45.3182V40.0227ZM44.8864 40.0227V39.0227H44.2118L43.9592 39.6482L44.8864 40.0227ZM32.0227 71.8637V72.8637H32.6973L32.9499 72.2382L32.0227 71.8637ZM25.9773 71.8637L25.0498 72.2375L25.3022 72.8637H25.9773V71.8637ZM13.1136 39.9546L14.0411 39.5807L13.7887 38.9546H13.1136V39.9546ZM12.6818 39.9546V38.9546H11.6818V39.9546H12.6818ZM12.6818 72V73H13.6818V72H12.6818ZM4.59091 72H3.59091V73H4.59091V72ZM4.59091 26.4546H14.9091V24.4546H4.59091V26.4546ZM13.9837 25.8337L27.8019 59.561L29.6526 58.8027L15.8344 25.0754L13.9837 25.8337ZM28.7273 60.1818H29.2727V58.1818H28.7273V60.1818ZM30.1981 59.561L44.0163 25.8337L42.1656 25.0754L28.3474 58.8027L30.1981 59.561ZM43.0909 26.4546H53.4091V24.4546H43.0909V26.4546ZM52.4091 25.4546V72H54.4091V25.4546H52.4091ZM53.4091 71H45.3182V73H53.4091V71ZM46.3182 72V40.0227H44.3182V72H46.3182ZM45.3182 39.0227H44.8864V41.0227H45.3182V39.0227ZM43.9592 39.6482L31.0955 71.4891L32.9499 72.2382L45.8136 40.3973L43.9592 39.6482ZM32.0227 70.8637H25.9773V72.8637H32.0227V70.8637ZM26.9047 71.4898L14.0411 39.5807L12.1862 40.3285L25.0498 72.2375L26.9047 71.4898ZM13.1136 38.9546H12.6818V40.9546H13.1136V38.9546ZM11.6818 39.9546V72H13.6818V39.9546H11.6818ZM12.6818 71H4.59091V73H12.6818V71ZM5.59091 72V25.4546H3.59091V72H5.59091ZM62.2273 72H61.2273V73H62.2273V72ZM62.2273 37.0909V36.0909H61.2273V37.0909H62.2273ZM70.4545 37.0909H71.4545V36.0909H70.4545V37.0909ZM70.4545 72V73H71.4545V72H70.4545ZM63 30.8409L62.3168 31.5712L62.3232 31.5771L63 30.8409ZM63 24.5227L63.6768 25.2589L63.6832 25.253L63 24.5227ZM69.7273 24.5227L69.0382 25.2474L69.0443 25.2532L69.0505 25.2589L69.7273 24.5227ZM69.7273 30.8409L70.41 31.5716L70.4104 31.5712L69.7273 30.8409ZM63.2273 72V37.0909H61.2273V72H63.2273ZM62.2273 38.0909H70.4545V36.0909H62.2273V38.0909ZM69.4545 37.0909V72H71.4545V37.0909H69.4545ZM70.4545 71H62.2273V73H70.4545V71ZM66.3636 31.1364C65.3054 31.1364 64.4274 30.7948 63.6768 30.1048L62.3232 31.5771C63.4514 32.6143 64.8158 33.1364 66.3636 33.1364V31.1364ZM63.6832 30.1107C62.9349 29.4107 62.5909 28.6177 62.5909 27.6818H60.5909C60.5909 29.2005 61.1863 30.5136 62.3168 31.5712L63.6832 30.1107ZM62.5909 27.6818C62.5909 26.7277 62.9371 25.939 63.6768 25.2589L62.3232 23.7866C61.1842 24.8338 60.5909 26.1511 60.5909 27.6818H62.5909ZM63.6832 25.253C64.4346 24.55 65.3106 24.2046 66.3636 24.2046V22.2046C64.8106 22.2046 63.4442 22.7379 62.3168 23.7925L63.6832 25.253ZM66.3636 24.2046C67.4349 24.2046 68.3067 24.5519 69.0382 25.2474L70.4163 23.798C69.2994 22.736 67.9288 22.2046 66.3636 22.2046V24.2046ZM69.0505 25.2589C69.7902 25.939 70.1364 26.7277 70.1364 27.6818H72.1364C72.1364 26.1511 71.5431 24.8338 70.4041 23.7866L69.0505 25.2589ZM70.1364 27.6818C70.1364 28.6177 69.7923 29.4107 69.0441 30.1107L70.4104 31.5712C71.541 30.5136 72.1364 29.2005 72.1364 27.6818H70.1364ZM69.0445 30.1103C68.3139 30.793 67.4401 31.1364 66.3636 31.1364V33.1364C67.9235 33.1364 69.2921 32.6162 70.41 31.5716L69.0445 30.1103ZM87.142 72V73H88.142V72H87.142ZM78.9148 72H77.9148V73H78.9148V72ZM78.9148 37.0909V36.0909H77.9148V37.0909H78.9148ZM86.7784 37.0909H87.7784V36.0909H86.7784V37.0909ZM86.7784 43.0227H85.7784V44.0227H86.7784V43.0227ZM87.1875 43.0227V44.0227H87.8578L88.1125 43.4028L87.1875 43.0227ZM91.0284 38.3637L90.4837 37.525L90.4804 37.5272L91.0284 38.3637ZM103.892 38.1818L103.393 39.0483L103.396 39.0501L103.892 38.1818ZM108.074 42.6591L107.181 43.1091L107.184 43.1146L108.074 42.6591ZM109.551 49.7727L108.551 49.7673V49.7727H109.551ZM109.551 72V73H110.551V72H109.551ZM101.324 72H100.324V73H101.324V72ZM99.5057 45.5682L98.7653 46.2405L98.7696 46.2451L99.5057 45.5682ZM90.6875 44.5455L91.1772 45.4174L91.1811 45.4152L90.6875 44.5455ZM88.0739 47.25L87.1933 46.7759L87.1887 46.7847L88.0739 47.25ZM86.142 51.5455V72H88.142V51.5455H86.142ZM87.142 71H78.9148V73H87.142V71ZM79.9148 72V37.0909H77.9148V72H79.9148ZM78.9148 38.0909H86.7784V36.0909H78.9148V38.0909ZM85.7784 37.0909V43.0227H87.7784V37.0909H85.7784ZM86.7784 44.0227H87.1875V42.0227H86.7784V44.0227ZM88.1125 43.4028C88.8393 41.6338 89.9887 40.2403 91.5764 39.2001L90.4804 37.5272C88.553 38.79 87.1418 40.5026 86.2625 42.6427L88.1125 43.4028ZM91.5731 39.2023C93.1496 38.1782 95.1387 37.6364 97.5966 37.6364V35.6364C94.8423 35.6364 92.4527 36.246 90.4837 37.525L91.5731 39.2023ZM97.5966 37.6364C99.86 37.6364 101.78 38.1192 103.393 39.0483L104.391 37.3154C102.428 36.1839 100.151 35.6364 97.5966 35.6364V37.6364ZM103.396 39.0501C105.019 39.9776 106.279 41.3199 107.181 43.1091L108.967 42.2091C107.899 40.0892 106.371 38.4467 104.388 37.3136L103.396 39.0501ZM107.184 43.1146C108.094 44.8932 108.566 47.0975 108.551 49.7673L110.551 49.7782C110.567 46.8722 110.054 44.3341 108.964 42.2036L107.184 43.1146ZM108.551 49.7727V72H110.551V49.7727H108.551ZM109.551 71H101.324V73H109.551V71ZM102.324 72V51.0455H100.324V72H102.324ZM102.324 51.0455C102.324 48.5395 101.67 46.4445 100.242 44.8913L98.7696 46.2451C99.7656 47.3283 100.324 48.8847 100.324 51.0455H102.324ZM100.246 44.8959C98.8233 43.3292 96.8728 42.5909 94.5284 42.5909V44.5909C96.4265 44.5909 97.7941 45.1709 98.7654 46.2404L100.246 44.8959ZM94.5284 42.5909C92.9366 42.5909 91.4825 42.9444 90.1939 43.6758L91.1811 45.4152C92.1349 44.8738 93.2415 44.5909 94.5284 44.5909V42.5909ZM90.1978 43.6736C88.9166 44.3931 87.9142 45.4373 87.1934 46.7759L88.9543 47.7241C89.5063 46.6991 90.2463 45.9402 91.1772 45.4174L90.1978 43.6736ZM87.1887 46.7847C86.475 48.1425 86.142 49.7427 86.142 51.5455H88.142C88.142 49.9846 88.4303 48.7211 88.959 47.7153L87.1887 46.7847ZM135.347 37.0909H136.347V36.0909H135.347V37.0909ZM135.347 43.4546V44.4546H136.347V43.4546H135.347ZM115.278 43.4546H114.278V44.4546H115.278V43.4546ZM115.278 37.0909V36.0909H114.278V37.0909H115.278ZM120.233 28.7273V27.7273H119.233V28.7273H120.233ZM128.46 28.7273H129.46V27.7273H128.46V28.7273ZM128.96 64.0455L128.089 64.5368L128.097 64.5502L128.105 64.5633L128.96 64.0455ZM130.324 65.2273L129.97 66.1626L129.97 66.1626L130.324 65.2273ZM133.597 65.4318L133.427 64.4464L133.421 64.4474L133.597 65.4318ZM134.597 65.2273L135.574 65.0166L135.353 63.9906L134.339 64.2611L134.597 65.2273ZM135.983 71.6591L136.309 72.6045L137.147 72.3154L136.961 71.4484L135.983 71.6591ZM134.097 72.1591L133.88 71.1829L133.876 71.1838L134.097 72.1591ZM131.142 72.4773L131.116 71.4776L131.113 71.4777L131.142 72.4773ZM125.574 71.5455L125.185 72.4668L125.192 72.4698L125.574 71.5455ZM121.642 68.3182L120.806 68.8669L120.81 68.8729L121.642 68.3182ZM120.233 62.8637L121.233 62.8706V62.8637H120.233ZM134.347 37.0909V43.4546H136.347V37.0909H134.347ZM135.347 42.4546H115.278V44.4546H135.347V42.4546ZM116.278 43.4546V37.0909H114.278V43.4546H116.278ZM115.278 38.0909H135.347V36.0909H115.278V38.0909ZM120.233 29.7273H128.46V27.7273H120.233V29.7273ZM127.46 28.7273V61.5H129.46V28.7273H127.46ZM127.46 61.5C127.46 62.6813 127.634 63.7296 128.089 64.5368L129.831 63.5541C129.62 63.1796 129.46 62.5309 129.46 61.5H127.46ZM128.105 64.5633C128.554 65.3056 129.175 65.8616 129.97 66.1626L130.678 64.292C130.352 64.1687 130.063 63.9369 129.816 63.5277L128.105 64.5633ZM129.97 66.1626C130.658 66.4229 131.401 66.5455 132.188 66.5455V64.5455C131.61 64.5455 131.111 64.4559 130.678 64.292L129.97 66.1626ZM132.188 66.5455C132.751 66.5455 133.28 66.5042 133.772 66.4163L133.421 64.4474C133.065 64.511 132.655 64.5455 132.188 64.5455V66.5455ZM133.766 66.4173C134.214 66.3401 134.583 66.2659 134.854 66.1935L134.339 64.2611C134.156 64.3099 133.858 64.3721 133.427 64.4464L133.766 66.4173ZM133.619 65.438L135.005 71.8698L136.961 71.4484L135.574 65.0166L133.619 65.438ZM135.657 70.7137C135.271 70.8469 134.685 71.0039 133.88 71.1829L134.314 73.1353C135.144 72.9507 135.816 72.7744 136.309 72.6045L135.657 70.7137ZM133.876 71.1838C133.157 71.3465 132.242 71.4484 131.116 71.4776L131.168 73.477C132.375 73.4456 133.43 73.3353 134.317 73.1344L133.876 71.1838ZM131.113 71.4777C129.171 71.5348 127.458 71.2416 125.955 70.6211L125.192 72.4698C126.992 73.213 128.992 73.541 131.171 73.4769L131.113 71.4777ZM125.963 70.6242C124.487 70.0013 123.332 69.0507 122.474 67.7635L120.81 68.8729C121.891 70.4948 123.358 71.6957 125.185 72.4668L125.963 70.6242ZM122.478 67.7695C121.656 66.5174 121.219 64.9053 121.233 62.8706L119.233 62.8567C119.217 65.1857 119.719 67.2099 120.806 68.8669L122.478 67.7695ZM121.233 62.8637V28.7273H119.233V62.8637H121.233ZM144.227 84.8182L144.414 83.8358L144.402 83.8336L144.227 84.8182ZM141.977 84.2273L141.019 83.9418L140.759 84.8126L141.602 85.154L141.977 84.2273ZM143.886 77.8182L144.166 76.8581L143.212 76.5803L142.928 77.5327L143.886 77.8182ZM147.091 78.3182L147.075 77.3183L147.091 78.3182ZM149.568 77.4318L148.958 76.6398L148.948 76.6469L148.939 76.6542L149.568 77.4318ZM151.409 74.6137L152.344 74.9683L152.346 74.9635L151.409 74.6137ZM152.114 72.7273L153.05 73.0772L153.178 72.7359L153.056 72.3926L152.114 72.7273ZM139.455 37.0909V36.0909H138.038L138.512 37.4257L139.455 37.0909ZM148.182 37.0909L149.138 36.799L148.922 36.0909H148.182V37.0909ZM156.227 63.4546L155.271 63.7464L155.487 64.4546H156.227V63.4546ZM156.591 63.4546V64.4546H157.331L157.547 63.7472L156.591 63.4546ZM164.659 37.0909V36.0909H163.919L163.703 36.7983L164.659 37.0909ZM173.409 37.0909L174.351 37.4273L174.828 36.0909H173.409V37.0909ZM159.432 76.2273L158.49 75.8909L158.489 75.8949L159.432 76.2273ZM156.841 80.9773L156.066 80.345L156.063 80.3494L156.841 80.9773ZM152.886 84.0227L152.479 83.1096L152.468 83.1145L152.886 84.0227ZM147.341 84.0909C146.273 84.0909 145.299 84.0043 144.414 83.8359L144.04 85.8005C145.065 85.9957 146.166 86.0909 147.341 86.0909V84.0909ZM144.402 83.8336C143.497 83.673 142.823 83.491 142.353 83.3005L141.602 85.154C142.253 85.4181 143.079 85.6301 144.053 85.8028L144.402 83.8336ZM142.936 84.5128L144.845 78.1037L142.928 77.5327L141.019 83.9418L142.936 84.5128ZM143.607 78.7783C144.87 79.1462 146.041 79.3353 147.107 79.3181L147.075 77.3183C146.262 77.3314 145.296 77.1871 144.166 76.8581L143.607 78.7783ZM147.107 79.3181C148.263 79.2994 149.306 78.9295 150.197 78.2095L148.939 76.6542C148.406 77.0857 147.797 77.3067 147.075 77.3183L147.107 79.3181ZM150.179 78.2238C151.111 77.5051 151.811 76.3741 152.344 74.9683L150.474 74.259C150.007 75.4896 149.48 76.2373 148.958 76.6398L150.179 78.2238ZM152.346 74.9635L153.05 73.0772L151.177 72.3774L150.472 74.2638L152.346 74.9635ZM153.056 72.3926L140.397 36.7562L138.512 37.4257L151.171 73.062L153.056 72.3926ZM139.455 38.0909H148.182V36.0909H139.455V38.0909ZM147.225 37.3828L155.271 63.7464L157.184 63.1627L149.138 36.799L147.225 37.3828ZM156.227 64.4546H156.591V62.4546H156.227V64.4546ZM157.547 63.7472L165.615 37.3836L163.703 36.7983L155.635 63.1619L157.547 63.7472ZM164.659 38.0909H173.409V36.0909H164.659V38.0909ZM172.467 36.7546L158.49 75.891L160.374 76.5636L174.351 37.4273L172.467 36.7546ZM158.489 75.8949C157.87 77.6507 157.059 79.1288 156.066 80.345L157.616 81.6096C158.775 80.1894 159.691 78.5008 160.375 76.5597L158.489 75.8949ZM156.063 80.3494C155.086 81.56 153.895 82.4773 152.479 83.1097L153.294 84.9358C154.999 84.1743 156.444 83.0612 157.619 81.6052L156.063 80.3494ZM152.468 83.1145C151.084 83.7524 149.385 84.0909 147.341 84.0909V86.0909C149.6 86.0909 151.598 85.7173 153.305 84.931L152.468 83.1145Z" fill="black" mask="url(#path-3-outside-1_30_2)"/>
</svg>
